<?xml version="1.0" encoding="utf-8"?>
<!-- Generator: Adobe Illustrator 24.1.0, SVG Export Plug-In . SVG Version: 6.00 Build 0)  -->
<svg version="1.1" id="Layer_1" xmlns="http://www.w3.org/2000/svg" xmlns:xlink="http://www.w3.org/1999/xlink" x="0px" y="0px"
	 viewBox="0 0 498.6 218" style="enable-background:new 0 0 498.6 218;" xml:space="preserve">
<style type="text/css">
	.st0{fill:#FECF0C;}
	.st1{fill:#F89521;}
</style>
<g>
	<path class="st0" d="M345.4,136c-0.4-2.4-0.8-5.3-1.3-8.4c-2-13.2-4.8-31.2-9.1-47C328.8,58,322.7,52,319.6,50.4l-0.1-0.1
		c-0.9-0.5-1.9-0.8-2.9-0.8c-2.5-0.2-5,1-6.4,3c-0.1,0.1-0.2,0.4-0.6,1c-1.8,3.6-0.3,8.1,3.3,9.9l2.4,1.2l1,2.5
		c7.9,19.9,17.8,66.4,14.8,87.3c-2.5,17-12.2,29.6-26.1,33.6c-2.4,0.7-4.9,0.9-7.5,0.7c-6.9-0.5-13.6-4-17.4-9.1
		c-4.6-6.1-5.8-12.4-3.7-18.8c3.2-9.3,21.9-19.8,29-21.7c1.9-0.5,3.5-1.7,4.6-3.5c1-1.8,1.2-3.7,0.7-5.6c-0.8-3-3.4-5.2-6.6-5.4
		c-0.8-0.1-1.6,0-2.5,0.3c-12,3.3-28,14.4-35.6,24.7l-6.8,9.3l1.6,12.3c0.8,6.1,3.3,11.9,7.4,17.4c6.5,8.6,17,14.2,28.2,15
		c0,0,0,0,0,0c4.3,0.3,8.6-0.1,12.6-1.3c19.2-5.5,33.2-22.9,36.6-45.5C346.6,149.8,346.6,142.8,345.4,136z"/>
	<path class="st0" d="M81.9,94.1c0.1-0.1,0.1-0.2,0.1-0.4c1.1-3.4-0.5-7.2-3.7-8.8l-0.1-0.1c-6.7-3.4-14.2-5.4-22.3-6
		c-10.2-0.7-20.7,1-30.4,5l-9.9,4l0.2-10.6c0.5-26.1,3.6-32.6,6.9-35.8c10.8-10.5,26.1-16.2,41.1-15.2c6.1,0.4,11.7,1.9,16.7,4.5
		c0.9,0.4,1.8,0.7,2.8,0.8c3,0.2,5.8-1.4,7.1-3.9c0.4-0.7,0.5-1,0.5-1.1c1.1-3.4-0.5-7.2-3.7-8.8l-0.1-0.1c-6.7-3.4-14.2-5.4-22.3-6
		c-12-0.8-24.7,1.8-35.6,7.3c-6.2,3.1-11.8,7.2-16.8,12C7.6,35.7,2.1,57.8,2.2,104.6c0.1,36.1,3.7,69.9,7,78.8l0.2,0.5l0.1,0.5
		c4.4,22.4,11.4,30.7,16.4,31c3.3,0.2,6.3-2.5,7.3-4c-1.8-6.8-7.8-25.9-10.2-33.4c-2.7-7.6-5.6-41.1-6.8-67.8l-0.2-3.7l3-2.2
		C29.4,96.6,42.5,92.7,55,93.5c6.1,0.4,11.7,1.9,16.7,4.5c0.9,0.4,1.8,0.7,2.8,0.8c0.9,0.1,1.8,0,2.7-0.3l3.3-1L81.9,94.1z"/>
	<path class="st0" d="M159.5,145.4c-0.2-0.1-2.7-10.8-2.7-10.8c-2.2-6.1-5.6-12.5-10-19c-6.4-9.4-17.8-15.8-29.7-16.6
		c-3.4-0.2-6.8,0-10,0.7c-4.9,1-9.3,2.7-13.1,5.1l-4.4,2.7l-3.2,3.8c-2.1,2.5-3.8,5.2-5,8.2c-4.8,11.6-2.8,25.9,5.3,37.5
		c1.3,1.8,3.3,3,5.6,3.1c1.6,0.1,3.2-0.3,4.6-1.2c1.5-1,2.6-2.5,3-4.4c0.3-1.9-0.1-3.8-1.2-5.4c-5.4-7.9-6.8-16.9-3.7-24.3
		c2.6-5.9,7.7-9.7,15.1-11.2c1.9-0.4,3.9-0.5,5.9-0.4c7.3,0.5,14.5,4.5,18.4,10.1l0.7,1.1c6.5,9.6,16.4,24.1,6.5,38.8
		c-8,11.9-16.4,19.7-31.1,18.7c-3-0.2-6.4-0.8-10.3-1.7c-0.4-0.1-0.9-0.2-1.3-0.2c-3.5-0.2-6.8,2-7.6,5.2c-0.2,0.7-0.2,1-0.2,1.1
		c-0.3,3.4,2.1,6.6,5.6,7.4l0.1,0c6.3,1.6,10.9,2.4,15,2.7c8.5,0.6,16.3-1,28.7-10.8c5.3-4.2,9.9-9.2,13.7-14.8
		c4.2-6.3,6.1-13,5.9-20.5L159.5,145.4z"/>
	<path class="st0" d="M239.4,124.4c-1.2-2.2-3.4-3.6-6-3.8c-1.4-0.1-2.8,0.2-4.1,0.9c-1.6,0.9-2.8,2.4-3.4,4.3
		c-0.5,2-0.3,3.9,0.7,5.7c4.7,8.6,5.3,18.1,1.5,25.5c-3.1,5.9-8.5,9.4-16,10.4c-1.3,0.2-2.7,0.2-4.1,0.1
		c-7.9-0.5-15.6-5.4-19.3-12.2l-0.6-1.2c-5.6-10.5-14.1-26.3-2.9-40.8c6-7.7,10.8-13.2,18.6-12.6c3.1,0.2,6,1.4,9.6,2.9
		c2,0.8,4.2,1.7,7,2.7c0.6,0.2,1.2,0.3,1.9,0.4c3.3,0.2,6.4-1.8,7.5-4.9c0.2-0.7,0.3-1,0.3-1.2c0.6-3.5-1.5-7-4.9-8.2l-0.1,0
		c-4.6-1.6-8.3-3.2-11.5-4.6c-4.6-2-7.9-3.4-10.8-3.6c-2.6-0.2-6.3,0.4-14.3,6c-5.7,4-10.7,8.7-15,14.2c-4.5,5.9-7,12.3-7.7,19.7
		c0.1,0.2,0.2,0.4,0.2,0.7c0.5,3.4,1.6,6.7,1.6,10.2c0.1,13.2,5.7,22.9,8.1,27.4c6,11.3,18.3,19.1,31.3,20c2.3,0.2,4.7,0.1,6.9-0.2
		c11.4-1.4,20.3-6.9,25.8-15.7l6.1-9.8l-0.7-12.7C244.7,137.2,242.7,130.4,239.4,124.4z"/>
	<path class="st0" d="M463.2,156.9c-1,0.2-2,0.3-3,0.1l-0.1,0c-18.8-3-36.4-16.6-46-35.4c-3.1-6.2-5.3-12.8-6.5-19.7
		c-3.6-22.5,4.5-43.4,21.1-54.4c3.5-2.3,7.5-4.1,11.7-5.1c10.9-2.6,22.6-0.5,31.3,5.8c10.4,7.4,15.7,17.5,15.4,29.2
		c-0.3,9.8-16.3,19.9-28,27.2c-1.7,1-3.3,2.1-4.8,3.1c-0.7,0.5-1.5,0.8-2.3,1l0,0c-3,0.7-6.2-0.5-7.9-3.2c-1.1-1.6-1.4-3.6-1-5.5
		c0.5-2,1.6-3.6,3.3-4.7c1.5-0.9,4.1-2.2,6.7-3.4c8.4-3.8,17.9-8.2,18-16.6c0.1-6.9-2-10.9-8-15.1c-5.1-3.7-12.6-5.1-19.3-3.4
		c-2.5,0.6-4.9,1.6-6.9,3c-12,8-17.5,22.9-14.7,39.9c3.5,21.3,20.9,39.7,40.3,42.8c3.9,0.6,6.7,4.5,6.1,8.5c-0.1,0.7-0.2,1-0.2,1.1
		C467.6,154.5,465.6,156.3,463.2,156.9z"/>
	<path class="st0" d="M421.2,205.7c-10,0-20-2.2-29.1-6.4c-6.3-2.9-12.1-6.8-17.2-11.5c-4.9-4.5-11.1-26.3-12.6-73.1
		c-1.2-36.1,1.2-70,4.2-79l0.2-0.5l0.1-0.5c3.8-23.3,10.7-22.6,15.9-22.6c3.1,0,5.9,2.4,6.9,3.8c-1.6,6.8-6.9,17.2-9,24.7
		c-2.3,7.6-1.9,44.6-2.1,71c-0.5,60.8,6.4,61.9,9.2,64.4c9.8,8.9,20.4,15.1,33.8,15.1c7.9,0,15.4-1.8,21.7-5.3
		c1.1-0.6,2.3-0.9,3.5-0.9c2.7,0,5.2,1.4,6.5,3.8c0.3,0.6,0.5,0.9,0.5,1c1.2,3.4-0.2,7.2-3.4,8.9l-0.1,0.1
		C441.7,203.3,431.7,205.7,421.2,205.7C421.2,205.7,421.2,205.7,421.2,205.7z"/>
	<g>
		<path class="st1" d="M487.7,45.9c-11.9-13.8-32.2-19.1-49.3-12.8c-21.5,7.8-36,28.6-38,54c-0.5,7.5,0.5,15.1,1.8,22.7
			c6.1,36.8,41,43.8,60.6,52.1c6.7,2.9,14.2,0.3,17.9-5.5c0.4-0.6,0.7-1.3,1-2c3.1-7.3-0.4-15.7-7.6-18.8
			c-15.5-6.5-46.4-27.6-45-46.2c1.1-14.3,8.2-25.3,19.1-29.2c5.9-2.1,13.7-0.1,17.7,4.6c3.5,4,3.8,6,2.7,10.2
			c-1.5,5.7-17.4,6.4-24.3,8.8c-3.6,1.3-6.5,3.9-8.2,7.3c-1.7,3.4-2,7.4-0.7,11c2.6,7.5,10.8,11.5,18.3,8.8
			c15.9-5.5,39.5-11.8,43.6-26.5C500.8,70.8,497.5,57.2,487.7,45.9z M490.4,82.5c-3.4,12.5-25.5,17-39.1,21.7
			c-3.8,1.3-8-0.7-9.4-4.5c-0.6-1.8-0.6-3.9,0.3-5.7s2.4-3.1,4.2-3.8c9.1-3.2,25.5-3.8,27.6-11.6c1.7-6.4,2.1-12.8-2.9-18.6
			c-6-7-16.8-9.8-25.4-6.6c-7.2,2.9-13.1,7.8-17.1,14.4c-3.6,5.9-5.9,12.9-6.5,20.9c-1.6,21.5,31.1,45.5,49.2,53.1
			c3.7,1.6,5.5,5.9,3.9,9.7c-1.6,3.7-5.9,5.5-9.7,3.9c-17.5-7.4-40.4-9.9-56.5-47.3c-2.8-6.5-2.2-13.8-1.6-20.6
			c1.7-22.7,14.5-41.1,33.4-47.9c14.4-5.3,31.6-0.8,41.6,10.9C490.5,60,493.4,71.3,490.4,82.5z"/>
		<path class="st1" d="M466.6,181.4c-3.8-6.9-12.6-9.4-19.5-5.6c-14.7,8.2-36.3,4.8-50-7.7c-8.5-7.8-7.2-76.9-4.3-111.1
			c0.8-9.3,2.9-18.4,6.2-27.1c2.4-6.4,5.1-14.2,5.1-17.8c0-6.9-29.7-26.8-36.9,17.6c-5.6,23.5-8.5,142.2,10.3,159.5
			c5.6,5.1,12,9.4,19,12.6c21,9.8,45.7,9.4,64.3-0.9c6.4-3.4,9.1-11,6.7-17.5C467.3,182.8,466.9,182,466.6,181.4z M457.4,194.8
			c-16.7,9.2-38.9,9.5-58,0.6c-6.4-3-12.2-6.8-17.2-11.5c-16.8-15.3-14.7-133.1-8.4-152.1c0,0,8.2-24.5,15.4-21.8
			c7.2,2.7,6.6,1.1-1.4,26.4c-2.2,7.4-5.8,59.6-6,69.8c-0.1,6.9,4.6,61.5,10.5,66.9c15.9,14.5,40.9,18.3,58.1,8.7
			c3.5-1.9,8-0.7,10,2.9C462.3,188.3,461.1,192.8,457.4,194.8z"/>
	</g>
	<path class="st1" d="M351.7,129.5c-3.8-22.9-10.6-81.1-29.6-90.7c-6.4-3.4-14.2-1.3-18.2,4.3c-0.4,0.6-0.8,1.3-1.1,1.9
		c-2.7,5.3-1.7,11.5,1.9,15.8c4.4,5.2,7.4,11.5,9.3,18.1c6.4,22.6,11.7,54.4,9.6,69.2c-2,14.2-9.9,24.6-21.1,27.8
		c-6,1.7-13.7-0.8-17.4-5.8c-3.2-4.3-4-8.3-2.7-12.4c1.9-5.5,17.2-15.3,24.2-17.3c3.7-1,6.7-3.4,8.7-6.7c1.9-3.3,2.5-7.2,1.4-10.9
		c-2-7.6-10-12.2-17.6-10.1c-13.2,3.6-30.6,15.4-39.4,27.4c-0.4-7.6-4.8-20-8.8-27c-3.8-7-12.6-9.5-19.5-5.7c-3.4,1.8-5.8,5-6.8,8.6
		c-1,3.7-0.5,7.5,1.3,10.9c3.5,6.4,6.4,18.2,3.7,23.4c-2,3.8-5.5,6-10.8,6.7c-6.1,0.8-13.3-2.9-16.3-8.4c-5.5-10.2-13-23.1-4.2-34.4
		c11.4-14.7,11.5-10.3,27.4-4.8c7.5,2.6,15.7-1.4,18.3-8.9c0.2-0.7,0.5-1.4,0.6-2.1c1.2-6.8-2.7-13.8-9.6-16.1
		c-20.1-7-23.9-14.5-42.9-1.3c-6.4,4.4-11.9,9.7-16.6,15.7c-7.2,9.3-9.7,19.7-9.2,30.1c-2.6-7.5-6.4-14.7-10.7-21.2
		c-9.9-15.3-29.2-23.4-47.1-19.5c-5.8,1.2-11,3.4-15.5,6.3c0.1-0.3,0.3-0.7,0.4-1c2.1-6.6-0.8-14-7.3-17.2C69,65.4,47,65,27.6,72.9
		c0.3-15.8,1.7-27.9,4.8-31c13.3-13,34.8-17.1,49.7-9.5c7,3.6,15.8,0.7,19.3-6.3c0.3-0.6,0.7-1.4,0.9-2c2.1-6.6-0.8-14-7.3-17.2
		C76.1-2.8,51.4-2.2,30.7,8.3c-6.9,3.5-13.1,8-18.6,13.3C-6,39.5-0.5,159.9,7.4,181.3c11.4,57.5,39.3,31.9,37.8,25.3
		c-1.6-6.6-10.7-35.3-10.7-35.3c-2-5.5-5.1-35.9-6.4-65.9c13.3-9.9,31.8-12.5,45.2-5.7c3.4,1.7,7.2,1.9,10.6,0.9
		c-2.5,3.1-4.6,6.5-6.1,10.4c-5.7,14.1-3.5,31.5,5.8,45.5c4.4,6.6,13.4,8.4,19.9,4c3.2-2.1,5.3-5.4,6.1-9.2
		c0.7-3.8-0.1-7.5-2.2-10.8c-4-6.1-5.3-13.3-3.1-18.7c1.7-4,4.9-6.5,10.2-7.6c6.1-1.3,13.5,1.8,16.9,7c6.3,9.7,14.9,21.9,7.1,33.9
		c-10.1,15.6-17.1,14.6-33.4,10.4c-7.7-1.9-15.5,2.7-17.5,10.4c-0.2,0.7-0.3,1.5-0.4,2.2c-0.7,6.9,3.8,13.5,10.9,15.2
		c20.6,5.3,31.5,9.1,49.4-5.7c6-5,11.1-10.7,15.2-17c5.2-8.2,7.3-16.8,7.1-25.3c1.9,5.8,4.5,11.5,7.3,16.9
		c8.6,16.1,27.2,25.7,45.3,23.4c13.5-1.7,24.3-8.4,30.9-18.9c1,7.2,3.9,14.2,8.7,20.7c10.9,14.6,30.8,21.2,48.3,16.2
		c22-6.3,37.9-26,41.6-51.3C353,144.9,353,137.2,351.7,129.5z M76.4,93.6c0,0-18.9-8.6-46.5,0.4c-0.4,0.4-0.9,0.7-1.5,0.8
		c-2.9,0.8-5.6,2-8.2,3.5c-0.3,2.9-0.6,5-0.9,6c-2.4,7.4,6,62.2,8.5,69.5c9,25,9.8,32.4,2.7,35.3c-7.1,3-16.5-30.2-16.5-30.2
		C7,160.1,0.7,42.5,17,26.6c4.8-4.8,10.5-8.9,16.8-12.1c18.8-9.5,41.1-10,58-1.4c3.7,1.8,5.1,6.3,3.3,9.9c-1.8,3.7-6.3,5.1-9.9,3.3
		c-17.5-9-42.4-4.3-57.7,10.8c-3.6,3.5-5,26.1-6.1,44.3c2-0.3,4.1-0.4,6.2-0.9c0.2,0,0.4-0.1,0.5-0.1c18.1-8.1,38.9-8.1,55,0
		c3.7,1.8,5.1,6.3,3.3,9.9C84.4,94,80,95.4,76.4,93.6z M156.9,166.9c-3.7,5.8-8.3,11-13.7,15.5c-16.2,13.4-24.8,9-43.3,4.4
		c-4-1-6.4-5-5.4-8.9c1-4,5-6.4,8.9-5.4c19,4.9,29.3,4.6,40.9-13.4c4.4-6.7,5.6-14.3,4.2-21.1c-1.8-8.7-7.2-13.9-11.2-20.5
		c-5-7.7-15.2-12-24.3-10c-7.5,1.6-12.7,5.7-15.2,11.8c-3,7.5-1.6,17.2,3.7,25.3c1.1,1.6,1.5,3.6,1.1,5.5c-0.4,2-1.6,3.7-3.2,4.7
		c-3.4,2.2-8,1.3-10.2-2.1c-8-12-10-27-5.1-39c4.4-10.7,13.6-18,25.8-20.7c15.1-3.3,31.4,3.5,39.7,16.4
		C160.7,126.2,169.3,147.8,156.9,166.9z M248.9,160.3c-5.3,10.3-15,16.8-27.4,18.4c-15.3,2-31-6.1-38.2-19.7
		c-9.5-17.7-16.2-39.8-2.3-57.8c4.1-5.5,9.2-10.2,15-14.3c17.3-12,18.7-4.1,36.7,2.1c3.9,1.3,5.9,5.5,4.6,9.4
		c-1.3,3.9-5.5,5.9-9.4,4.6c-18.5-6.5-22-9.9-35.1,7.1c-4.9,6.3-6.8,13.8-6,20.7c1,8.8,6,14.4,9.4,21.3c4.3,8.1,14.2,13.2,23.3,12
		c7.6-1,13.1-4.6,16.1-10.5c3.7-7.3,3.1-17-1.6-25.5c-0.9-1.7-1.9-6.6-1.3-8.5c0.6-1.9,2.9-4.4,4.6-5.3c3.6-1.9,7.7,3.2,9.7,6.7
		C254,133.7,254.8,148.8,248.9,160.3z M345,151.4c-3.2,22.5-17.3,40-36.6,45.5c-14.8,4.3-31.5-1.3-40.7-13.7
		c-7.5-10-9.6-21.5-5.8-32.5c4.2-12.2,25.2-27.4,39.1-31.2c3.9-1,7.9,1.3,9.1,5.2c0.5,1.8,0.3,3.9-0.7,5.6c-1,1.7-2.6,2.9-4.4,3.5
		c-9.3,2.5-26.4,14.1-29.1,21.8c-2.1,6.2-0.9,12.8,3.7,18.9c5.5,7.4,16.1,10.9,24.9,8.4c7.4-2.4,13.6-6.9,18.1-13.2
		c4-5.6,6.8-12.5,7.9-20.4c3.1-21.3-4.7-65.2-16.8-86.9c-2.8-4.5-6.4-10.3-4.5-14c1.8-3.6,6.3-5.1,9.9-3.2
		c17,8.6,22.4,64.8,25.8,85.6C345.9,137.7,346,144.7,345,151.4z"/>
</g>
<path class="st1" d="M490.2,148.2h-1.4v3.8h-0.9v-3.8h-1.4v-0.8h3.6V148.2z M496.4,152.1h-0.9v-3.7h0l-1.3,3.7h-0.9l-1.3-3.7h0v3.7
	h-0.9v-4.7h1.6l1,3h0l1.1-3h1.6V152.1z"/>
</svg>
