<?xml version="1.0" encoding="utf-8"?>
<!-- Generator: Adobe Illustrator 24.1.0, SVG Export Plug-In . SVG Version: 6.00 Build 0)  -->
<svg version="1.1" id="Layer_1" xmlns="http://www.w3.org/2000/svg" xmlns:xlink="http://www.w3.org/1999/xlink" x="0px" y="0px"
	 viewBox="0 0 509.6 221.7" style="enable-background:new 0 0 509.6 221.7;" xml:space="preserve">
<style type="text/css">
	.st0{fill:#FFF5CF;}
	.st1{fill:#FECF0C;}
	.st2{fill:#F89521;}
</style>
<g>
	<path class="st0" d="M315.7,54.3c1.4-2,3.9-3.2,6.4-3c1,0,2,0.3,2.9,0.8l0.1,0.1c3.1,1.6,9.2,7.6,15.4,30.2
		c4.3,15.8,7.1,33.8,9.1,47c0.5,3.1,0.9,6,1.3,8.4c0,0.3,0.1,0.6,0.1,0.8c-0.1-2-0.3-4-0.6-6c-3.4-20.8-8.8-77-25.8-85.6
		c-3.6-1.9-8.1-0.4-9.9,3.2c-0.8,1.6-0.6,3.6,0.1,5.7c0.1-0.2,0.2-0.4,0.3-0.6C315.5,54.7,315.6,54.4,315.7,54.3z"/>
	<path class="st0" d="M285.6,181.4c3.8,5.1,10.5,8.6,17.4,9.1c2.6,0.2,5.1,0,7.5-0.7c13.9-4,23.6-16.6,26.1-33.6
		c0.8-5.4,0.7-12.5,0-20.5c0.2,5.8,0,11.1-0.6,15.4c-1.1,7.9-3.9,14.8-7.9,20.4c-4.5,6.3-10.7,10.8-18.1,13.2
		c-8.8,2.5-19.4-1-24.9-8.4c-2.1-2.8-3.5-5.7-4.2-8.6C280.7,172.4,282.2,177,285.6,181.4z"/>
	<path class="st0" d="M320.8,66.4l-0.6-0.3c0.9,1.8,1.8,3.7,2.7,5.8c-0.4-1-0.7-2-1.1-3L320.8,66.4z"/>
	<path class="st0" d="M244.9,126.2c3.3,6,5.3,12.8,5.7,19.6l0.7,12.7l-6.1,9.8c-2.7,4.3-6.2,7.8-10.3,10.4
		c8.6-2.9,15.4-8.6,19.5-16.6c5.9-11.5,5.1-26.6-1.9-39.3c-2-3.5-6.1-8.6-9.7-6.7c-1.7,0.9-4,3.4-4.6,5.3c-0.1,0.3-0.1,0.6-0.2,1
		c0.3,0,0.6,0,0.9,0C241.5,122.6,243.7,124,244.9,126.2z"/>
	<path class="st0" d="M307.1,126.7c0.9-0.3,1.7-0.4,2.5-0.3c2.6,0.2,4.9,1.7,6,3.9c0.3-1.3,0.3-2.6,0-3.8c-1.2-3.9-5.2-6.2-9.1-5.2
		c-13.9,3.8-34.9,19-39.1,31.2c-0.8,2.2-1.3,4.4-1.6,6.6l5.7-7.7C279.1,141.1,295.1,130,307.1,126.7z"/>
	<path class="st0" d="M104.2,150.9c1.1,1.6,1.5,3.5,1.2,5.3c1.3-1,2.3-2.6,2.7-4.3c0.4-1.9,0-3.9-1.1-5.5
		c-4.9-7.5-6.5-16.3-4.3-23.5c-0.9,1.1-1.6,2.4-2.2,3.7C97.4,134,98.8,143,104.2,150.9z"/>
	<path class="st0" d="M95.1,109.3l4.4-2.7c3.8-2.4,8.2-4.1,13.1-5.1c3.2-0.7,6.6-0.9,10-0.7c11.9,0.8,23.3,7.2,29.7,16.6
		c4.4,6.5,7.8,12.9,10,19c0,0,2.5,10.7,2.7,10.8l0.6,4.9c0.2,7.5-1.7,14.2-5.9,20.5c0,0,0,0,0,0.1c1-1.3,1.9-2.6,2.7-4
		c12.4-19.1,3.8-40.7-7.3-57.5c-8.3-12.9-24.6-19.7-39.7-16.4c-12.2,2.7-21.4,10-25.8,20.7c-0.2,0.5-0.4,1.1-0.6,1.6
		c0.9-1.4,1.8-2.7,2.9-4L95.1,109.3z"/>
	<path class="st0" d="M395.1,17.7c-1.6,6.8-6.9,17.2-9,24.7c-2.3,7.6-1.9,44.6-2.1,71c-0.5,60.8,6.4,61.9,9.2,64.4
		c9.8,8.9,20.4,15.1,33.8,15.1c7.9,0,15.4-1.8,21.7-5.3c1.1-0.6,2.3-0.9,3.5-0.9c2.7,0,5.2,1.4,6.5,3.8c0.3,0.6,0.5,0.9,0.5,1
		c1,2.7,0.2,5.7-1.7,7.7c1.9-0.8,3.7-1.6,5.4-2.6c3.7-2,4.9-6.5,3-10.1c-2-3.6-6.5-4.8-10-2.9c-17.2,9.6-42.2,5.8-58.1-8.7
		c-5.9-5.4-10.6-60-10.5-66.9c0.2-10.2,3.8-62.4,6-69.8c8-25.3,8.6-23.7,1.4-26.4c-1.8-0.7-3.6,0.3-5.4,2.2
		C391.9,14.5,394.2,16.5,395.1,17.7z"/>
	<path class="st0" d="M105.7,182c3.9,0.9,7.3,1.5,10.3,1.7c14.7,1,23.1-6.8,31.1-18.7c0.3-0.5,0.6-1,0.9-1.5
		c-10.9,15.4-21.1,15.4-39.1,10.8c-3.9-1-7.9,1.4-8.9,5.4c-0.3,1.1-0.3,2.2-0.1,3.2c1.3-0.8,2.9-1.2,4.5-1.1
		C104.8,181.8,105.3,181.9,105.7,182z"/>
	<path class="st0" d="M70.3,13.4c8.1,0.6,15.6,2.6,22.3,6l0.1,0.1c3.2,1.6,4.8,5.4,3.7,8.8c0,0,0,0.1-0.1,0.2
		c1.8-0.6,3.4-1.9,4.3-3.7c1.8-3.6,0.4-8.1-3.3-9.9c-16.9-8.6-39.2-8.1-58,1.4c-6.3,3.2-12,7.3-16.8,12.1c-0.3,0.3-0.5,0.6-0.8,0.9
		c4-3.3,8.3-6.3,13-8.6C45.6,15.2,58.3,12.6,70.3,13.4z"/>
	<path class="st0" d="M88.6,82.2c-16.1-8.1-36.9-8.1-55,0c-0.1,0-0.3,0.1-0.5,0.1c-2.1,0.5-4.2,0.6-6.2,0.9
		c1.1-17.5,2.4-39.1,5.7-43.8c-1.5,1.2-3,2.5-4.4,3.8c-3.3,3.2-6.4,9.7-6.9,35.8l-0.2,10.6l9.9-4c9.7-4,20.2-5.7,30.4-5
		c8.1,0.6,15.6,2.6,22.3,6l0.1,0.1c3.2,1.6,4.8,5.4,3.7,8.8c0,0.2,0,0.2-0.1,0.3c1.8-0.6,3.5-1.9,4.5-3.7
		C93.7,88.5,92.3,84,88.6,82.2z"/>
	<path class="st0" d="M21.5,108.3l0.2,3.7c1.2,26.7,4.1,60.2,6.8,67.8c2.1,6.5,6.9,21.8,9.3,30.2c5.1-3.5,3.7-11.7-4.5-34.4
		c-2.5-7.3-10.9-62.1-8.5-69.5c0-0.1,0-0.2,0.1-0.3c-0.1,0.1-0.2,0.2-0.4,0.3L21.5,108.3z"/>
	<path class="st0" d="M412.4,97.6c0,4.2,0.4,8.3,2,12.2c-0.5-2-1-4-1.3-6C412.7,101.7,412.5,99.6,412.4,97.6z"/>
	<path class="st0" d="M451.9,97.1c1.5-0.9,4.1-2.2,6.7-3.4c4.1-1.9,8.5-3.9,11.9-6.4c-5.9,1.9-13.4,2.9-18.6,4.7
		c-1.8,0.7-3.3,2-4.2,3.8s-0.9,3.9-0.3,5.7c0.3,0.7,0.6,1.3,1,1.9c0-0.5,0.1-1.1,0.2-1.6C449.1,99.8,450.2,98.2,451.9,97.1z"/>
	<path class="st0" d="M427.7,101.5c3.5,21.3,20.9,39.7,40.3,42.8c3.9,0.6,6.7,4.5,6.1,8.5c-0.1,0.7-0.2,1-0.2,1.1
		c-0.5,1.4-1.3,2.6-2.5,3.5c3.7,1.3,7.7-0.5,9.3-4.1c1.6-3.8-0.2-8.1-3.9-9.7C458.7,136,426,112,427.6,90.5c0.6-8,2.9-15,6.5-20.9
		c0-0.1,0.1-0.1,0.1-0.2C428,77.7,425.6,89.1,427.7,101.5z"/>
	<path class="st0" d="M446.3,41.4c-10.2,3.7-18.6,10.7-24.5,20c3.3-4.8,7.5-8.9,12.4-12.1c3.5-2.3,7.5-4.1,11.7-5.1
		c10.9-2.6,22.6-0.5,31.3,5.8c10.4,7.4,15.7,17.5,15.4,29.2c-0.2,7.4-9.4,14.9-18.9,21.3c10.3-3.6,20-8.3,22.2-16.2
		c3-11.2,0.1-22.5-8-32C477.9,40.6,460.7,36.1,446.3,41.4z"/>
	<path class="st0" d="M190.7,115.1c-11.2,14.5-2.7,30.3,2.9,40.8l0.6,1.2c3.7,6.8,11.4,11.7,19.3,12.2c1.4,0.1,2.8,0.1,4.1-0.1
		c4.1-0.5,7.5-1.8,10.3-3.8c-0.9,0.2-1.9,0.4-2.9,0.5c-9.1,1.2-19-3.9-23.3-12c-3.4-6.9-8.4-12.5-9.4-21.3c-0.8-6.9,1.1-14.4,6-20.7
		c3.4-4.4,6.1-7.4,8.6-9.4C200.5,103.1,196,108.2,190.7,115.1z"/>
	<path class="st0" d="M208.3,86c2.9,0.2,6.2,1.6,10.8,3.6c3.2,1.4,6.9,3,11.5,4.6h0.1c3.4,1.2,5.5,4.7,4.9,8.2
		c0,0.2-0.1,0.5-0.3,1.2c-0.2,0.5-0.5,1-0.8,1.5c3.5,0.6,7.1-1.4,8.3-4.9c1.3-3.9-0.7-8.1-4.6-9.4c-16.6-5.7-19.1-12.8-32.8-4.6
		C206.5,86,207.4,86,208.3,86z"/>
	<path class="st1" d="M273.2,185c9.2,12.4,25.9,18,40.7,13.7c19.3-5.5,33.4-23,36.6-45.5c0.7-4.7,0.9-9.6,0.5-14.6
		c0-0.3-0.1-0.6-0.1-0.8c-0.4-2.4-0.8-5.3-1.3-8.4c-2-13.2-4.8-31.2-9.1-47c-6.2-22.6-12.3-28.6-15.4-30.2l-0.1-0.1
		c-0.9-0.5-1.9-0.8-2.9-0.8c-2.5-0.2-5,1-6.4,3c-0.1,0.1-0.2,0.4-0.6,1c-0.1,0.2-0.2,0.4-0.3,0.6c1,2.8,2.8,5.7,4.4,8.3
		c0.3,0.6,0.7,1.3,1,1.9l0.6,0.3l1,2.5c0.4,0.9,0.7,1.9,1.1,3c7.7,17.9,12.9,44.1,13.7,63.9c0.7,7.9,0.8,15.1,0,20.5
		c-2.5,17-12.2,29.6-26.1,33.6c-2.4,0.7-4.9,0.9-7.5,0.7c-6.9-0.5-13.6-4-17.4-9.1c-3.4-4.5-4.9-9-4.7-13.7c-0.8-3.5-0.7-7,0.5-10.3
		c2.7-7.7,19.8-19.3,29.1-21.8c1.8-0.6,3.4-1.8,4.4-3.5c0.3-0.6,0.6-1.1,0.7-1.8c-1.1-2.2-3.4-3.8-6-3.9c-0.8-0.1-1.6,0-2.5,0.3
		c-12,3.3-28,14.4-35.6,24.7l-5.7,7.7C264.6,168.1,267.2,177,273.2,185z"/>
	<path class="st1" d="M83.8,86.7l-0.1-0.1c-6.7-3.4-14.2-5.4-22.3-6c-10.2-0.7-20.7,1-30.4,5l-9.9,4L21.3,79
		c0.5-26.1,3.6-32.6,6.9-35.8c1.4-1.4,2.9-2.6,4.4-3.8c0.1-0.2,0.3-0.3,0.4-0.5c15.3-15.1,40.2-19.8,57.7-10.8
		c1.8,0.9,3.8,1,5.6,0.4c0-0.1,0.1-0.2,0.1-0.2c1.1-3.4-0.5-7.2-3.7-8.8l-0.1-0.1c-6.7-3.4-14.2-5.4-22.3-6
		c-12-0.8-24.7,1.8-35.6,7.3c-4.7,2.3-9,5.2-13,8.6c-15.3,18.9-9.1,132.9-2.2,151.4c0,0,9.4,33.2,16.5,30.2c0.7-0.3,1.3-0.6,1.8-0.9
		c-2.4-8.4-7.2-23.6-9.3-30.2c-2.7-7.6-5.6-41.1-6.8-67.8l-0.2-3.7l3-2.2c0.1-0.1,0.2-0.2,0.4-0.3c0.3-1.1,0.6-3.1,0.8-5.7
		c2.6-1.5,5.3-2.7,8.2-3.5c0.6-0.1,1.1-0.4,1.5-0.8c27.6-9,46.5-0.4,46.5-0.4c1.8,0.9,3.8,1,5.5,0.4c0-0.1,0.1-0.2,0.1-0.3
		C88.6,92.1,87,88.3,83.8,86.7z"/>
	<path class="st1" d="M97.4,191.9c1,1.8,2.7,3.2,4.8,3.6h0.1c5.2,1.3,9.2,2.1,12.7,2.5c-3.5-0.8-7.3-1.8-11.4-2.9
		C101.2,194.6,99.1,193.4,97.4,191.9z"/>
	<path class="st1" d="M105.4,188.6c18.5,4.6,27.1,9,43.3-4.4c4.1-3.4,7.8-7.3,11-11.5c0,0,0,0,0-0.1c4.2-6.3,6.1-13,5.9-20.5
		l-0.6-4.9c-0.2-0.1-2.7-10.8-2.7-10.8c-2.2-6.1-5.6-12.5-10-19c-6.4-9.4-17.8-15.8-29.7-16.6c-3.4-0.2-6.8,0-10,0.7
		c-4.9,1-9.3,2.7-13.1,5.1l-4.4,2.7l-3.2,3.8c-1.1,1.3-2,2.6-2.9,4c-4.1,11.7-2,25.9,5.7,37.4c2.2,3.4,6.8,4.3,10.2,2.1
		c0.2-0.1,0.3-0.2,0.5-0.4c0.3-1.9-0.1-3.8-1.2-5.3c-5.4-7.9-6.8-16.9-3.7-24.3c0.6-1.4,1.3-2.6,2.2-3.7c0.2-0.6,0.4-1.2,0.6-1.8
		c2.5-6.1,7.7-10.2,15.2-11.8c9.1-2,19.3,2.3,24.3,10c4,6.6,9.4,11.8,11.2,20.5c1.4,6.8,0.2,14.4-4.2,21.1c-0.6,0.9-1.2,1.8-1.8,2.6
		c-0.3,0.5-0.6,1-0.9,1.5c-8,11.9-16.4,19.7-31.1,18.7c-3-0.2-6.4-0.8-10.3-1.7c-0.4-0.1-0.9-0.2-1.3-0.2c-1.6-0.1-3.2,0.3-4.5,1.1
		C100.4,185.6,102.5,187.9,105.4,188.6z"/>
	<path class="st1" d="M182.6,164c-2.8-5.4-5.4-11.1-7.3-16.9c0,1.2,0,2.4-0.1,3.5c1.9,6.2,4.5,10.8,6,13.6
		c3.4,6.4,8.8,11.6,15.1,15.1C190.6,175.4,185.9,170.2,182.6,164z"/>
	<path class="st1" d="M171.9,121.7c-0.3,1.4-0.5,2.8-0.6,4.2c0.1,0.2,0.2,0.4,0.2,0.7c0.1,0.6,0.2,1.1,0.3,1.7
		C171.7,126.1,171.7,123.9,171.9,121.7z"/>
	<path class="st1" d="M232.1,133.3c2.7,4.9,4,10,4,14.9c0.5-5.9-1.9-14.4-4.7-19.5c-0.1-0.1-0.1-0.2-0.2-0.3
		C230.9,130.1,231.2,131.8,232.1,133.3z"/>
	<path class="st1" d="M239.5,129.9c4.7,8.5,5.3,18.2,1.6,25.5c-2.6,5.1-7.1,8.5-13.2,10c-2.8,2-6.3,3.3-10.3,3.8
		c-1.3,0.2-2.7,0.2-4.1,0.1c-7.9-0.5-15.6-5.4-19.3-12.2l-0.6-1.2c-5.6-10.5-14.1-26.3-2.9-40.8c5.4-6.9,9.8-12,16.2-12.6
		c7.3-5.7,12.7-2.5,26.5,2.3c0.4,0.1,0.8,0.2,1.1,0.3c0.3-0.5,0.6-0.9,0.8-1.5c0.2-0.7,0.3-1,0.3-1.2c0.6-3.5-1.5-7-4.9-8.2h-0.1
		c-4.6-1.6-8.3-3.2-11.5-4.6c-4.6-2-7.9-3.4-10.8-3.6c-0.8-0.1-1.8,0-2.9,0.2c-1.2,0.7-2.5,1.5-3.9,2.5c-5.8,4.1-10.9,8.8-15,14.3
		c-13.9,18-7.2,40.1,2.3,57.8c7.2,13.6,22.9,21.7,38.2,19.7c2.8-0.4,5.4-1,7.9-1.8c4.2-2.6,7.7-6.1,10.3-10.4l6.1-9.8l-0.7-12.7
		c-0.4-6.8-2.4-13.6-5.7-19.6c-1.2-2.2-3.4-3.6-6-3.8c-0.3,0-0.6,0-0.9,0C237.9,124.7,238.7,128.5,239.5,129.9z"/>
	<path class="st1" d="M492.6,79.2c0.3-11.7-5-21.8-15.4-29.2c-8.7-6.3-20.4-8.4-31.3-5.8c-4.2,1-8.2,2.8-11.7,5.1
		c-4.9,3.3-9.1,7.4-12.4,12.1c-5,7.9-8.1,17.4-8.9,27.9c-0.2,2.7-0.5,5.5-0.5,8.2c0.1,2,0.4,4.1,0.7,6.2c0.4,2,0.8,4,1.3,6
		c0,0.1,0,0.1,0.1,0.2c16.1,37.4,39,39.9,56.5,47.3c0.1,0.1,0.3,0.1,0.4,0.2c1.1-0.9,2-2.1,2.5-3.5c0-0.1,0.1-0.4,0.2-1.1
		c0.6-4-2.2-7.9-6.1-8.5c-19.4-3.1-36.8-21.5-40.3-42.8c-2.1-12.5,0.4-23.8,6.5-32.1c4-6.5,9.8-11.3,17-14.2
		c8.6-3.2,19.4-0.4,25.4,6.6c5,5.8,4.6,12.2,2.9,18.6c-0.9,3.4-4.5,5.4-9,6.9c-3.4,2.6-7.8,4.6-11.9,6.4c-2.6,1.2-5.2,2.5-6.7,3.4
		c-1.7,1.1-2.8,2.7-3.3,4.7c-0.1,0.5-0.2,1.1-0.2,1.6c1.9,2.5,5.3,3.7,8.4,2.6c5-1.7,11-3.4,16.9-5.5
		C483.2,94.2,492.3,86.6,492.6,79.2z"/>
	<path class="st1" d="M371.2,40.6c-2.6,12.1-4.5,43.1-3.4,75.9c1.5,46.8,7.7,68.6,12.6,73.1c4.1,3.8,8.6,7,13.5,9.6
		c-3.9-2.4-7.5-5.2-10.9-8.2C366,175.4,366.7,76.6,371.2,40.6z"/>
	<path class="st1" d="M387.7,185.7c5,4.7,10.8,8.5,17.2,11.5c17.1,8,36.7,8.5,52.6,2c2-2,2.7-4.9,1.7-7.7c0-0.1-0.2-0.4-0.5-1
		c-1.3-2.4-3.8-3.8-6.5-3.8c-1.2,0-2.4,0.3-3.5,0.9c-6.3,3.5-13.8,5.3-21.7,5.3c-13.4,0-24-6.2-33.8-15.1c-2.8-2.5-9.7-3.6-9.2-64.4
		c0.2-26.4-0.2-63.4,2.1-71c2.1-7.5,7.4-17.9,9-24.7c-0.9-1.2-3.1-3.2-5.8-3.7c-5.4,5.7-10,19.6-10,19.6
		C373,52.6,370.9,170.4,387.7,185.7z"/>
	<path class="st2" d="M493.2,47.7c-11.9-13.8-32.2-19.1-49.3-12.8c-21.5,7.8-36,28.6-38,54c-0.5,7.5,0.5,15.1,1.8,22.7
		c6.1,36.8,41,43.8,60.6,52.1c6.7,2.9,14.2,0.3,17.9-5.5c0.4-0.6,0.7-1.3,1-2c3.1-7.3-0.4-15.7-7.6-18.8
		c-15.5-6.5-46.4-27.6-45-46.2c1.1-14.3,8.2-25.3,19.1-29.2c5.9-2.1,13.7-0.1,17.7,4.6c3.5,4,3.8,6,2.7,10.2
		c-1.5,5.7-17.4,6.4-24.3,8.8c-3.6,1.3-6.5,3.9-8.2,7.3c-1.7,3.4-2,7.4-0.7,11c2.6,7.5,10.8,11.5,18.3,8.8
		c15.9-5.5,39.5-11.8,43.6-26.5C506.3,72.6,503,59,493.2,47.7z M495.9,84.3c-2.2,7.9-11.9,12.7-22.2,16.2c-3.1,2.1-6.2,4.1-9.1,5.9
		c-1.7,1-3.3,2.1-4.8,3.1c-0.7,0.5-1.5,0.8-2.3,1c-3,0.7-6.2-0.5-7.9-3.2c-0.8-1.2-1.2-2.5-1.2-3.9c-0.4-0.6-0.8-1.2-1-1.9
		c-0.6-1.8-0.6-3.9,0.3-5.7s2.4-3.1,4.2-3.8c5.2-1.8,12.7-2.8,18.6-4.7c3.5-2.7,6-5.9,6.1-10.2c0.1-6.9-2-10.9-8-15.1
		c-5.1-3.7-12.6-5.1-19.3-3.4c-2.5,0.6-4.9,1.6-6.9,3c-3.2,2.1-5.9,4.8-8.2,7.8c0,0.1-0.1,0.1-0.1,0.2c-3.6,5.9-5.9,12.9-6.5,20.9
		c-1.6,21.5,31.1,45.5,49.2,53.1c3.7,1.6,5.5,5.9,3.9,9.7c-1.5,3.6-5.6,5.4-9.3,4.1c-0.8,0.6-1.7,1.1-2.7,1.3c-1,0.2-2,0.3-3,0.1
		h-0.1c-18.8-3-36.4-16.6-46-35.4c-2.2-4.4-3.9-8.9-5.2-13.7c-1.6-3.9-2.1-8-2-12.2c-0.9-13.6,2.5-26.2,9.4-36.1
		c5.9-9.3,14.3-16.4,24.5-20c14.4-5.3,31.6-0.8,41.6,10.9C496,61.8,498.9,73.1,495.9,84.3z"/>
	<path class="st2" d="M479.5,80.4c1.7-6.4,2.1-12.8-2.9-18.6c-6-7-16.8-9.8-25.4-6.6c-7.1,2.9-13,7.7-17,14.2c2.2-3,5-5.7,8.2-7.8
		c2-1.4,4.4-2.4,6.9-3c6.7-1.7,14.2-0.3,19.3,3.4c6,4.2,8.1,8.2,8,15.1c-0.1,4.3-2.5,7.5-6.1,10.2C475,85.8,478.6,83.8,479.5,80.4z"
		/>
	<path class="st2" d="M448.4,103.4c0,1.4,0.4,2.7,1.2,3.9c1.7,2.7,4.9,3.9,7.9,3.2c0.8-0.2,1.6-0.5,2.3-1c1.5-1,3.1-2.1,4.8-3.1
		c2.9-1.8,6-3.8,9.1-5.9c-5.9,2.1-12,3.7-16.9,5.5C453.7,107.1,450.3,106,448.4,103.4z"/>
	<path class="st2" d="M414.5,109.9c0-0.1,0-0.1-0.1-0.2c1.3,4.7,3,9.3,5.2,13.7c9.6,18.8,27.2,32.4,46,35.4h0.1c1,0.2,2,0.1,3-0.1
		c1-0.3,1.9-0.7,2.7-1.3c-0.1-0.1-0.3-0.1-0.4-0.2C453.5,149.8,430.6,147.3,414.5,109.9z"/>
	<path class="st2" d="M421.8,61.5c-6.9,9.9-10.3,22.5-9.4,36.1c0-2.8,0.3-5.5,0.5-8.2C413.7,78.9,416.8,69.4,421.8,61.5z"/>
	<path class="st2" d="M472.1,183.2c-3.8-6.9-12.6-9.4-19.5-5.6c-14.7,8.2-36.3,4.8-50-7.7c-8.5-7.8-7.2-76.9-4.3-111.1
		c0.8-9.3,2.9-18.4,6.2-27.1c2.4-6.4,5.1-14.2,5.1-17.8c0-6.9-29.7-26.8-36.9,17.6c-0.5,2.2-1,5.3-1.5,9.1c0.3-1.2,0.5-2.2,0.8-3.1
		l0.2-0.5l0.1-0.5c3.8-23.3,10.7-22.6,15.9-22.6c0.4,0,0.8,0,1.1,0.1c1.8-1.9,3.6-2.9,5.4-2.2c7.2,2.7,6.6,1.1-1.4,26.4
		c-2.2,7.4-5.8,59.6-6,69.8c-0.1,6.9,4.6,61.5,10.5,66.9c15.9,14.5,40.9,18.3,58.1,8.7c3.5-1.9,8-0.7,10,2.9c1.9,3.6,0.7,8.1-3,10.1
		c-1.8,1-3.6,1.8-5.4,2.6c-0.5,0.5-1,0.9-1.7,1.2l-0.1,0.1c-8.5,4.6-18.5,7-29,7c-10,0-20-2.2-29.1-6.4c-1.3-0.6-2.5-1.2-3.7-1.9
		c2.6,1.6,5.3,3.1,8.1,4.4c21,9.8,45.7,9.4,64.3-0.9c6.4-3.4,9.1-11,6.7-17.5C472.8,184.6,472.4,183.8,472.1,183.2z"/>
	<path class="st2" d="M426.7,207.5c10.5,0,20.5-2.4,29-7l0.1-0.1c0.6-0.3,1.2-0.7,1.7-1.2c-15.9,6.6-35.5,6-52.6-2
		c-6.4-3-12.2-6.8-17.2-11.5c-16.8-15.3-14.7-133.1-8.4-152.1c0,0,4.6-13.9,10-19.6c-0.4-0.1-0.7-0.1-1.1-0.1
		c-5.2,0-12.1-0.7-15.9,22.6l-0.1,0.5l-0.2,0.5c-0.3,0.8-0.5,1.8-0.8,3.1c-4.5,36-5.2,134.8,11.8,150.4c3.4,3.1,7,5.8,10.9,8.2
		c1.2,0.7,2.5,1.3,3.7,1.9C406.7,205.3,416.7,207.5,426.7,207.5z"/>
	<path class="st2" d="M171.8,128.3c0,0.1,0,0.2,0,0.3c-2.6-7.5-6.4-14.7-10.7-21.2C151.2,92.1,131.9,84,114,87.9
		c-5.8,1.2-11,3.4-15.5,6.3c0.1-0.3,0.3-0.7,0.4-1c2.1-6.6-0.8-14-7.3-17.2c-17.1-8.8-39.1-9.2-58.5-1.3c0.3-15.8,1.7-27.9,4.8-31
		c13.3-13,34.8-17.1,49.7-9.5c7,3.6,15.8,0.7,19.3-6.3c0.3-0.6,0.7-1.4,0.9-2c2.1-6.6-0.8-14-7.3-17.2C81.6-1,56.9-0.4,36.2,10.1
		c-6.9,3.5-13.1,8-18.6,13.3C-0.5,41.3,5,161.7,12.9,183.1c11.4,57.5,39.3,31.9,37.8,25.3c-1.6-6.6-10.7-35.3-10.7-35.3
		c-2-5.5-5.1-35.9-6.4-65.9c13.3-9.9,31.8-12.5,45.2-5.7c3.4,1.7,7.2,1.9,10.6,0.9c-2.5,3.1-4.6,6.5-6.1,10.4
		c-5.7,14.1-3.5,31.5,5.8,45.5c4.4,6.6,13.4,8.4,19.9,4c3.2-2.1,5.3-5.4,6.1-9.2c0.7-3.8-0.1-7.5-2.2-10.8c-4-6.1-5.3-13.3-3.1-18.7
		c1.7-4,4.9-6.5,10.2-7.6c6.1-1.3,13.5,1.8,16.9,7c6.3,9.7,14.9,21.9,7.1,33.9c-10.1,15.6-17.1,14.6-33.4,10.4
		c-7.7-1.9-15.5,2.7-17.5,10.4c-0.2,0.7-0.3,1.5-0.4,2.2c-0.5,4.6,1.4,9,4.7,12c-0.6-1.1-0.9-2.4-0.8-3.8c0-0.1,0-0.4,0.2-1.1
		c0.4-1.7,1.6-3.2,3.1-4.1c-0.2-1-0.2-2.1,0.1-3.2c1-4,5-6.4,8.9-5.4c18,4.7,28.2,4.6,39.1-10.8c8.3-14.2-1.2-28-7.4-37.3l-0.7-1.1
		c-3.9-5.6-11.1-9.6-18.4-10.1c-2-0.1-4,0-5.9,0.4c-5.7,1.2-10,3.7-12.9,7.5c-2.1,7.2-0.6,16.1,4.3,23.5c1.1,1.6,1.5,3.6,1.1,5.5
		c-0.4,1.8-1.4,3.3-2.7,4.3c0,0,0,0,0,0.1c-0.4,1.9-1.5,3.4-3,4.4c-1.4,0.9-3,1.3-4.6,1.2c-2.3-0.1-4.3-1.3-5.6-3.1
		c-8.1-11.6-10.1-25.9-5.3-37.5c0.6-1.5,1.3-2.9,2.1-4.2c0.2-0.5,0.4-1.1,0.6-1.6c4.4-10.7,13.6-18,25.8-20.7
		c15.1-3.3,31.4,3.5,39.7,16.4c11.1,16.8,19.7,38.4,7.3,57.5c-0.9,1.4-1.8,2.7-2.7,4c-3.8,5.6-8.4,10.6-13.7,14.7
		c-12.4,9.8-20.2,11.4-28.7,10.8c-0.7-0.1-1.5-0.1-2.3-0.2c13.9,3.2,23.7,3.2,38-8.6c6-5,11.1-10.7,15.2-17c4.5-7.1,6.7-14.4,7-21.8
		c-1.2-4-2.1-8.6-2.1-13.8C173.1,133.9,172.3,131.1,171.8,128.3z M91.9,92.1c-1,1.9-2.6,3.2-4.5,3.7c0,0,0,0,0,0.1L86,99.3l-3.3,1
		c-0.9,0.3-1.8,0.4-2.7,0.3c-1-0.1-1.9-0.4-2.8-0.8c-5-2.6-10.6-4.1-16.7-4.5c-12.4-0.8-25.3,3-35.6,10.5c0,0.1,0,0.2-0.1,0.3
		c-2.4,7.4,6,62.2,8.5,69.5c8.2,22.6,9.6,30.9,4.5,34.4c0.4,1.3,0.7,2.4,0.9,3.2c-1,1.5-4,4.2-7.3,4c-5-0.3-12-8.6-16.4-31l-0.1-0.5
		l-0.2-0.5c-3.3-8.9-6.9-42.7-7-78.8c-0.1-46.8,5.4-68.9,10.2-73.7c1.2-1.2,2.5-2.3,3.8-3.4c0.3-0.3,0.5-0.6,0.8-0.9
		c4.8-4.8,10.5-8.9,16.8-12.1c18.8-9.5,41.1-10,58-1.4c3.7,1.8,5.1,6.3,3.3,9.9c-0.9,1.8-2.5,3.1-4.3,3.7c-0.1,0.2-0.2,0.4-0.4,0.9
		c-1.3,2.5-4.1,4.1-7.1,3.9c-1-0.1-1.9-0.4-2.8-0.8c-5-2.6-10.6-4.1-16.7-4.5c-13.1-0.9-26.3,3.3-36.7,11.4
		c-3.3,4.7-4.7,26.3-5.7,43.8c2-0.3,4.1-0.4,6.2-0.9c0.2,0,0.4-0.1,0.5-0.1c18.1-8.1,38.9-8.1,55,0C92.3,84,93.7,88.5,91.9,92.1z"/>
	<path class="st2" d="M327.6,40.6c-6.4-3.4-14.2-1.3-18.2,4.3c-0.4,0.6-0.8,1.3-1.1,1.9c-2.7,5.3-1.7,11.5,1.9,15.8
		c4.4,5.2,7.4,11.5,9.3,18.1c6.4,22.6,11.7,54.4,9.6,69.2c-2,14.2-9.9,24.6-21.1,27.8c-6,1.7-13.7-0.8-17.4-5.8
		c-3.2-4.3-4-8.3-2.7-12.4c1.9-5.5,17.2-15.3,24.2-17.3c3.7-1,6.7-3.4,8.7-6.7c1.9-3.3,2.5-7.2,1.4-10.9c-2-7.6-10-12.2-17.6-10.1
		c-13.2,3.6-30.6,15.4-39.4,27.4c-0.4-7.6-4.8-20-8.8-27c-2.2-4-6-6.6-10.2-7.3c-3.2,3.3-8,4.9-12.7,4.1c-1.6,1.7-2.8,3.8-3.4,6
		c-1,3.6-0.5,7.3,1.1,10.6c0-0.3,0.1-0.5,0.2-0.8c0.6-1.9,1.8-3.4,3.4-4.3c1-0.6,2.1-0.8,3.2-0.9c0-0.4,0.1-0.7,0.2-1
		c0.6-1.9,2.9-4.4,4.6-5.3c3.6-1.9,7.7,3.2,9.7,6.7c7,12.7,7.8,27.8,1.9,39.3c-4.1,8-10.9,13.7-19.5,16.6c-4.4,2.8-9.6,4.6-15.5,5.3
		c-2.2,0.3-4.6,0.4-6.9,0.2c-5.7-0.4-11.2-2.1-16.2-4.9c9.1,6.4,20.4,9.5,31.6,8.1c13.5-1.7,24.3-8.4,30.9-18.9
		c1,7.2,3.9,14.2,8.7,20.7c10.9,14.6,30.8,21.2,48.3,16.2c22-6.3,37.9-26,41.6-51.3c1.1-7.4,1.1-15.1-0.2-22.8
		C353.4,108.4,346.6,50.2,327.6,40.6z M351.1,158.6c-3.4,22.6-17.4,40-36.6,45.5c-4,1.2-8.3,1.6-12.6,1.3
		c-11.2-0.8-21.7-6.4-28.2-15c-4.1-5.5-6.6-11.3-7.4-17.4l-1.6-12.3l1.1-1.6c0.3-2.2,0.8-4.4,1.6-6.6c4.2-12.2,25.2-27.4,39.1-31.2
		c3.9-1,7.9,1.3,9.1,5.2c0.3,1.2,0.3,2.6,0,3.8c0.2,0.5,0.4,0.9,0.6,1.5c0.5,1.9,0.3,3.8-0.7,5.6c-1.1,1.8-2.7,3-4.6,3.5
		c-7.1,1.9-25.8,12.4-29,21.7c-0.6,1.7-0.9,3.4-1,5.1c0.7,2.9,2.1,5.8,4.2,8.6c5.5,7.4,16.1,10.9,24.9,8.4
		c7.4-2.4,13.6-6.9,18.1-13.2c4-5.6,6.8-12.5,7.9-20.4c0.6-4.3,0.8-9.6,0.6-15.4c-1.9-21.3-8.1-48.4-13.7-63.9c-0.9-2-1.8-4-2.7-5.8
		l-1.8-0.9c-3.4-1.7-4.9-5.8-3.6-9.3c-0.7-2.1-0.9-4.1-0.1-5.7c1.8-3.6,6.3-5.1,9.9-3.2c17,8.6,22.4,64.8,25.8,85.6
		c0.3,2,0.5,4,0.6,6C352.1,145.2,352,151.9,351.1,158.6z"/>
	<path class="st2" d="M236.9,109.2c-1.3,0.7-2.4,1.6-3.4,2.6c4.7,0.8,9.4-0.8,12.7-4.1C243.1,107.2,239.8,107.6,236.9,109.2z"/>
	<path class="st2" d="M194,92c5.5-3.8,8.9-5.3,11.4-5.8c13.7-8.2,16.3-1.1,32.8,4.6c3.9,1.3,5.9,5.5,4.6,9.4
		c-1.2,3.5-4.7,5.5-8.3,4.9c-1.4,2.2-4,3.6-6.7,3.4c-0.7-0.1-1.3-0.2-1.9-0.4c-2.8-1-5-1.9-7-2.7c-3.6-1.5-6.5-2.7-9.6-2.9
		c-0.8-0.1-1.6,0-2.4,0c-2.5,2-5.3,5-8.6,9.4c-4.9,6.3-6.8,13.8-6,20.7c1,8.8,6,14.4,9.4,21.3c4.3,8.1,14.2,13.2,23.3,12
		c1-0.1,2-0.3,2.9-0.5c2.3-1.7,4.2-3.9,5.7-6.6c1.7-3.2,2.5-6.8,2.5-10.6c-0.1,1.5-0.4,2.8-1,3.9c-2,3.8-5.5,6-10.8,6.7
		c-6.1,0.8-13.3-2.9-16.3-8.4c-5.5-10.2-13-23.1-4.2-34.4c11.4-14.7,11.5-10.3,27.4-4.8c0.8,0.3,1.5,0.4,2.3,0.6
		c1-1,2.1-1.9,3.4-2.6c2.9-1.6,6.2-2.1,9.3-1.6c1.4-1.5,2.6-3.3,3.3-5.3c0.2-0.7,0.5-1.4,0.6-2.1c1.2-6.8-2.7-13.8-9.6-16.1
		c-20.1-7-23.9-14.5-42.9-1.3c-6.4,4.4-11.9,9.7-16.6,15.7c-5.6,7.2-8.3,15.1-9.1,23.2c1.1-5.7,3.4-10.7,7.1-15.5
		C183.3,100.7,188.3,96,194,92z"/>
	<path class="st2" d="M350.5,153.2c-3.2,22.5-17.3,40-36.6,45.5c-14.8,4.3-31.5-1.3-40.7-13.7c-6-8-8.5-17-7.4-25.9l-1.1,1.6
		l1.6,12.3c0.8,6.1,3.3,11.9,7.4,17.4c6.5,8.6,17,14.2,28.2,15c4.3,0.3,8.6-0.1,12.6-1.3c19.2-5.5,33.2-22.9,36.6-45.5
		c1-6.7,1-13.4-0.1-20C351.3,143.6,351.2,148.5,350.5,153.2z"/>
	<path class="st2" d="M336.6,135.8c-0.7-19.8-6-45.9-13.7-63.9C328.5,87.4,334.7,114.5,336.6,135.8z"/>
	<path class="st2" d="M310.5,135.6c-9.3,2.5-26.4,14.1-29.1,21.8c-1.1,3.4-1.3,6.9-0.5,10.3c0.1-1.7,0.4-3.4,1-5.1
		c3.2-9.3,21.9-19.8,29-21.7c1.9-0.5,3.5-1.7,4.6-3.5c1-1.8,1.2-3.7,0.7-5.6c-0.1-0.5-0.3-1-0.6-1.5c-0.2,0.6-0.4,1.2-0.7,1.8
		C313.9,133.8,312.3,135,310.5,135.6z"/>
	<path class="st2" d="M314.8,56c-1.3,3.5,0.2,7.6,3.6,9.3l1.8,0.9c-0.3-0.7-0.7-1.3-1-1.9C317.6,61.7,315.8,58.7,314.8,56z"/>
	<path class="st2" d="M90.7,28.1c-17.5-9-42.4-4.3-57.7,10.8c-0.1,0.1-0.3,0.3-0.4,0.5c10.3-8,23.6-12.2,36.7-11.4
		c6.1,0.4,11.7,1.9,16.7,4.5c0.9,0.4,1.8,0.7,2.8,0.8c3,0.2,5.8-1.4,7.1-3.9c0.3-0.5,0.4-0.7,0.4-0.9C94.5,29.1,92.5,29,90.7,28.1z"
		/>
	<path class="st2" d="M81.9,95.4c0,0-18.9-8.6-46.5,0.4c-0.4,0.4-0.9,0.7-1.5,0.8c-2.9,0.8-5.6,2-8.2,3.5c-0.3,2.7-0.6,4.7-0.8,5.7
		c10.3-7.5,23.3-11.3,35.6-10.5c6.1,0.4,11.7,1.9,16.7,4.5c0.9,0.4,1.8,0.7,2.8,0.8c0.9,0.1,1.8,0,2.7-0.3l3.3-1l1.4-3.4
		c0,0,0,0,0-0.1C85.6,96.4,83.7,96.3,81.9,95.4z"/>
	<path class="st2" d="M19.5,180.7C12.6,162.3,6.4,48.3,21.7,29.3c-1.3,1.1-2.6,2.2-3.8,3.4c-4.8,4.8-10.3,26.9-10.2,73.7
		c0.1,36.1,3.7,69.9,7,78.8l0.2,0.5l0.1,0.5c4.4,22.4,11.4,30.7,16.4,31c3.3,0.2,6.3-2.5,7.3-4c-0.2-0.9-0.5-2-0.9-3.2
		c-0.5,0.4-1.1,0.7-1.8,0.9C28.9,213.9,19.5,180.7,19.5,180.7z"/>
	<path class="st2" d="M154,139.8c-1.8-8.7-7.2-13.9-11.2-20.5c-5-7.7-15.2-12-24.3-10c-7.5,1.6-12.7,5.7-15.2,11.8
		c-0.2,0.6-0.4,1.2-0.6,1.8c2.9-3.8,7.2-6.3,12.9-7.5c1.9-0.4,3.9-0.5,5.9-0.4c7.3,0.5,14.5,4.5,18.4,10.1l0.7,1.1
		c6.3,9.3,15.7,23.1,7.4,37.3c0.6-0.8,1.2-1.7,1.8-2.6C154.2,154.2,155.4,146.6,154,139.8z"/>
	<path class="st2" d="M146,187.4c5.3-4.2,9.9-9.2,13.7-14.7c-3.2,4.2-6.8,8.1-11,11.5c-16.2,13.4-24.8,9-43.3,4.4
		c-2.9-0.7-4.9-3-5.5-5.7c-1.5,0.9-2.7,2.4-3.1,4.1c-0.2,0.7-0.2,1-0.2,1.1c-0.1,1.3,0.2,2.6,0.8,3.8c1.7,1.5,3.8,2.7,6.2,3.2
		c4.2,1.1,7.9,2.1,11.4,2.9c0.8,0.1,1.5,0.2,2.3,0.2C125.8,198.8,133.6,197.2,146,187.4z"/>
	<path class="st2" d="M94.7,154.5c-7.6-11.5-9.8-25.7-5.7-37.4c-0.8,1.3-1.5,2.7-2.1,4.2c-4.8,11.6-2.8,25.9,5.3,37.5
		c1.3,1.8,3.3,3,5.6,3.1c1.6,0.1,3.2-0.3,4.6-1.2c1.5-1,2.6-2.5,3-4.4c0,0,0,0,0-0.1c-0.2,0.1-0.3,0.2-0.5,0.4
		C101.5,158.8,96.9,157.9,94.7,154.5z"/>
	<path class="st2" d="M206.9,102.6c0.8-0.1,1.5-0.1,2.4,0c3.1,0.2,6,1.4,9.6,2.9c2,0.8,4.2,1.7,7,2.7c0.6,0.2,1.2,0.3,1.9,0.4
		c2.7,0.2,5.3-1.2,6.7-3.4c-0.4-0.1-0.8-0.2-1.1-0.3C219.7,100,214.2,96.9,206.9,102.6z"/>
	<path class="st2" d="M236.1,148.3c0,3.8-0.8,7.4-2.5,10.6c-1.4,2.7-3.3,4.9-5.7,6.6c6.1-1.5,10.6-4.8,13.2-10
		c3.7-7.3,3.1-17-1.6-25.5c-0.8-1.5-1.6-5.2-1.5-7.5c-1.1,0.1-2.2,0.3-3.2,0.9c-1.6,0.9-2.8,2.4-3.4,4.3c-0.1,0.3-0.1,0.5-0.2,0.8
		c0.1,0.1,0.1,0.2,0.2,0.3C234.2,133.8,236.6,142.4,236.1,148.3z"/>
	<path class="st2" d="M219.4,184c5.9-0.7,11-2.5,15.5-5.3c-2.5,0.8-5.1,1.4-7.9,1.8c-15.3,2-31-6.1-38.2-19.7
		c-9.5-17.7-16.2-39.8-2.3-57.8c4.1-5.5,9.2-10.2,15-14.3c1.4-1,2.7-1.8,3.9-2.5c-2.5,0.5-5.9,2-11.4,5.8c-5.7,4-10.7,8.7-15,14.2
		c-3.6,4.7-5.9,9.8-7.1,15.5c-0.2,2.2-0.2,4.4-0.1,6.6c0.5,2.8,1.3,5.6,1.3,8.5c0,5.2,0.9,9.8,2.1,13.8c0.1-1.2,0.1-2.4,0.1-3.5
		c1.9,5.8,4.5,11.5,7.3,16.9c3.3,6.2,8.1,11.4,13.7,15.3c4.9,2.7,10.5,4.5,16.2,4.9C214.8,184.4,217.2,184.3,219.4,184z"/>
	<polygon class="st2" points="499.2,152.2 498.2,149.2 496.6,149.2 496.6,153.9 497.5,153.9 497.5,150.2 498.8,153.9 499.7,153.9 
		501,150.2 501,153.9 501.9,153.9 501.9,153.9 501.9,149.2 500.3,149.2 	"/>
	<polygon class="st2" points="492,149.2 492,150 493.4,150 493.4,153.8 494.3,153.8 494.3,150 495.6,150 495.6,149.2 	"/>
</g>
</svg>
